Coordinates
version=1
nRows=16
nColumns=40
inDegrees=yes

Units are S.I. units (second, meters, Newtons, ...)
If the header above contains a line with 'inDegrees', this indicates whether rotational values are in degrees (yes) or radians (no).

endheader
time	pelvis_tilt	pelvis_list	pelvis_rotation	pelvis_tx	pelvis_ty	pelvis_tz	hip_flexion_r	hip_adduction_r	hip_rotation_r	knee_angle_r	knee_angle_r_beta	ankle_angle_r	subtalar_angle_r	mtp_angle_r	hip_flexion_l	hip_adduction_l	hip_rotation_l	knee_angle_l	knee_angle_l_beta	ankle_angle_l	subtalar_angle_l	mtp_angle_l	lumbar_extension	lumbar_bending	lumbar_rotation	arm_flex_r	arm_add_r	arm_rot_r	elbow_flex_r	pro_sup_r	wrist_flex_r	wrist_dev_r	arm_flex_l	arm_add_l	arm_rot_l	elbow_flex_l	pro_sup_l	wrist_flex_l	wrist_dev_l
      8.00000000	     -5.52707504	      0.35166895	    178.25177688	      0.24226167	      0.81540857	     -0.92934454	     27.51597142	    -32.99695357	    -16.97950737	     41.41050069	      0.72274958	      0.34344520	      0.00000000	      0.00000000	     20.57865172	    -39.65780604	    -26.29773897	     37.79098049	      0.65957704	     -4.26593945	      0.00000000	      0.00000000	    -69.35593574	     -5.67310877	     -0.05242294	     37.56552178	      3.53295898	     21.22039849	     33.53279842	     39.21763128	      0.00000000	      0.00000000	     50.23862487	    -10.84441039	     54.18217932	     21.45058912	     85.45326522	      0.00000000	      0.00000000
      8.00500000	     -5.19915494	      0.62187213	    178.47010101	      0.24316824	      0.81389820	     -0.92896475	     27.88957393	    -32.86255417	    -17.20946657	     41.66728596	      0.72723133	      0.40298131	      0.00000000	      0.00000000	     21.59060456	    -40.04421559	    -25.81212785	     38.31614088	      0.66874281	     -4.20531307	      0.00000000	      0.00000000	    -69.31753866	     -5.32255320	     -0.07460620	     37.88297619	      3.66753966	     21.64035494	     33.16436363	     39.61181473	      0.00000000	      0.00000000	     50.30818764	    -10.71089129	     53.33552564	     21.08685775	     85.29349143	      0.00000000	      0.00000000
      8.01000000	     -5.20079919	      0.68322211	    178.41837780	      0.24391025	      0.81325724	     -0.92918707	     28.07883869	    -32.80048073	    -17.13145261	     41.83898845	      0.73022810	      0.41900883	      0.00000000	      0.00000000	     21.64949498	    -40.16456439	    -25.81709874	     38.30065588	      0.66847255	     -4.18310540	      0.00000000	      0.00000000	    -69.65417972	     -5.36975409	     -0.12533352	     37.93631791	      3.67422006	     21.63751479	     33.18158496	     39.61441952	      0.00000000	      0.00000000	     50.53577545	    -10.81583171	     53.30826023	     21.05054026	     85.29268549	      0.00000000	      0.00000000
      8.01500000	     -5.16340060	      0.52312677	    178.27792219	      0.24488649	      0.81255787	     -0.92972757	     28.52034532	    -32.88533831	    -16.71045863	     42.10549217	      0.73487947	      0.55796089	      0.00000000	      0.00000000	     21.69846678	    -40.12463150	    -26.00577085	     38.46622511	      0.67136228	     -4.31943596	      0.00000000	      0.00000000	    -69.94609202	     -5.63147532	     -0.37188930	     38.39547212	      3.89549325	     21.82804189	     32.71845118	     39.73836150	      0.00000000	      0.00000000	     51.03141445	    -10.95883641	     54.46727551	     20.75395875	     84.80979957	      0.00000000	      0.00000000
      8.02000000	     -5.01619215	      0.67906590	    178.40871233	      0.24560307	      0.81147229	     -0.92941534	     28.73268371	    -32.84451291	    -16.86297057	     42.30784219	      0.73841115	      0.62653401	      0.00000000	      0.00000000	     22.31416641	    -40.35551440	    -25.67351826	     38.85945874	      0.67822550	     -4.00099606	      0.00000000	      0.00000000	    -70.11571791	     -5.42401688	     -0.41725378	     38.55154394	      3.94012496	     21.78327615	     32.83653565	     40.00758281	      0.00000000	      0.00000000	     51.23659586	    -10.86381516	     53.91670166	     20.35008046	     85.36879552	      0.00000000	      0.00000000
      8.02500000	     -4.97596428	      0.56548917	    178.32656959	      0.24648295	      0.81079216	     -0.92967253	     29.08211085	    -32.92663624	    -16.56847859	     42.51475087	      0.74202238	      0.67341009	      0.00000000	      0.00000000	     22.43182089	    -40.34539352	    -25.79579858	     39.03192299	      0.68123557	     -3.99465004	      0.00000000	      0.00000000	    -70.41948035	     -5.58625378	     -0.58246555	     38.74863075	      4.07329137	     21.67830058	     32.81743478	     40.02424186	      0.00000000	      0.00000000	     51.65345592	    -10.92034268	     54.55548975	     20.15026000	     85.36008166	      0.00000000	      0.00000000
      8.03000000	     -4.95047600	      0.61248234	    178.33671652	      0.24714143	      0.81010187	     -0.92971698	     29.25426539	    -32.92605268	    -16.56518132	     42.71146291	      0.74545566	      0.74684873	      0.00000000	      0.00000000	     22.68208260	    -40.46625399	    -25.66106373	     39.22409031	      0.68458952	     -4.02221317	      0.00000000	      0.00000000	    -70.72901016	     -5.57046386	     -0.65523430	     38.93739877	      4.13692801	     21.70453869	     32.80726419	     40.21336367	      0.00000000	      0.00000000	     51.91558013	    -10.91612866	     54.47683289	     19.90764806	     85.38351327	      0.00000000	      0.00000000
      8.03500000	     -4.97743851	      0.66063165	    178.33664130	      0.24787447	      0.80942860	     -0.92961778	     29.36815640	    -32.92417292	    -16.52089422	     42.86853905	      0.74819715	      0.65492737	      0.00000000	      0.00000000	     22.84788462	    -40.54026211	    -25.45068128	     39.37679779	      0.68725477	     -3.93149269	      0.00000000	      0.00000000	    -71.07347518	     -5.55176347	     -0.76393049	     39.25405575	      4.26739148	     22.00576531	     32.39320398	     40.25376191	      0.00000000	      0.00000000	     52.22558981	    -10.92610240	     54.76223885	     19.62612104	     85.07391801	      0.00000000	      0.00000000
      8.04000000	     -4.91008811	      0.69285511	    178.36157013	      0.24869403	      0.80872589	     -0.92953794	     29.59284425	    -32.91083370	    -16.44680117	     43.01727971	      0.75079317	      0.77216629	      0.00000000	      0.00000000	     23.20363560	    -40.64862022	    -25.30766195	     39.62984550	      0.69167129	     -3.96318734	      0.00000000	      0.00000000	    -71.34277375	     -5.52134800	     -0.86493745	     39.49674020	      4.34323133	     22.11766119	     32.24624776	     40.28538597	      0.00000000	      0.00000000	     52.56881916	    -10.94984261	     55.11575381	     19.33243717	     85.06205086	      0.00000000	      0.00000000
      8.04500000	     -4.94246185	      0.77330708	    178.34932728	      0.24938063	      0.80815951	     -0.92944491	     29.68018201	    -32.85243044	    -16.40215432	     43.14359805	      0.75299784	      0.79048699	      0.00000000	      0.00000000	     23.35671751	    -40.73685265	    -25.06086572	     39.76089321	      0.69395850	     -3.86787477	      0.00000000	      0.00000000	    -71.70577154	     -5.49762094	     -0.90072864	     39.72139422	      4.39339451	     22.17983588	     32.27287442	     40.27158506	      0.00000000	      0.00000000	     52.87304065	    -10.93300141	     55.19251177	     19.07199917	     85.06977688	      0.00000000	      0.00000000
      8.05000000	     -5.17403564	      0.63524541	    178.29022853	      0.24971814	      0.80791036	     -0.92947683	     29.63799007	    -33.05615019	    -16.32645972	     43.32819224	      0.75621961	      0.75536940	      0.00000000	      0.00000000	     23.17114705	    -40.82978838	    -25.61871353	     40.10453424	      0.69995617	     -4.01856014	      0.00000000	      0.00000000	    -72.28611171	     -5.61141741	     -1.20507608	     39.86732259	      4.51792054	     22.15512335	     32.38062881	     40.28600274	      0.00000000	      0.00000000	     52.98963859	    -11.00438093	     54.62421058	     18.97839546	     83.38633858	      0.00000000	      0.00000000
      8.05500000	     -4.95408165	      0.74563738	    178.33283691	      0.25065419	      0.80680424	     -0.92930670	     30.04364205	    -32.95687650	    -16.21888143	     43.53064713	      0.75975312	      0.88987083	      0.00000000	      0.00000000	     23.76430632	    -40.87303811	    -24.95862256	     40.25980166	      0.70266610	     -3.84607360	      0.00000000	      0.00000000	    -72.35904053	     -5.52819510	     -1.20449470	     40.23354037	      4.58750912	     22.50794848	     31.79752349	     40.27528345	      0.00000000	      0.00000000	     53.46050362	    -10.95317780	     55.43179880	     18.47404394	     84.72972147	      0.00000000	      0.00000000
      8.06000000	     -4.92524100	      0.91608279	    178.38525312	      0.25127917	      0.80606999	     -0.92908169	     30.11711057	    -32.84091998	    -16.28017122	     43.64652776	      0.76177562	      0.91761570	      0.00000000	      0.00000000	     24.13324911	    -41.09341076	    -24.65582695	     40.52625812	      0.70731664	     -3.75122675	      0.00000000	      0.00000000	    -72.65559949	     -5.39025636	     -1.20807932	     40.36587073	      4.61369199	     22.50451912	     31.98704857	     40.38030332	      0.00000000	      0.00000000	     53.62948264	    -10.98467497	     54.78563629	     18.33940760	     85.12827758	      0.00000000	      0.00000000
      8.06500000	     -4.95422829	      0.89173400	    178.34974289	      0.25186800	      0.80546053	     -0.92908189	     30.28131712	    -32.87535197	    -16.13108472	     43.81638877	      0.76474025	      0.97334798	      0.00000000	      0.00000000	     24.26030135	    -41.16839757	    -24.69494665	     40.76341337	      0.71145578	     -3.71583709	      0.00000000	      0.00000000	    -73.02022288	     -5.43425189	     -1.34858174	     40.50942260	      4.69917939	     22.40591821	     32.10409367	     40.39127520	      0.00000000	      0.00000000	     53.89104006	    -11.03791440	     54.55306318	     18.17015650	     85.43713273	      0.00000000	      0.00000000
      8.07000000	     -4.92636514	      0.92470946	    178.38145242	      0.25247169	      0.80463390	     -0.92891588	     30.46345898	    -32.89669048	    -16.08004641	     44.01033100	      0.76812518	      1.03241074	      0.00000000	      0.00000000	     24.57167672	    -41.26851914	    -24.53380314	     41.03790493	      0.71624656	     -3.66315785	      0.00000000	      0.00000000	    -73.30219816	     -5.38331948	     -1.45275340	     40.66378178	      4.76092765	     22.49518298	     32.05562280	     40.38501036	      0.00000000	      0.00000000	     54.14774730	    -11.03080726	     54.44179061	     17.88301781	     85.44694289	      0.00000000	      0.00000000
      8.07500000	     -5.05270095	      0.77856777	    178.23743155	      0.25296966	      0.80419361	     -0.92917603	     30.65728193	    -33.00550582	    -15.78141046	     44.23523158	      0.77205044	      1.13429706	      0.00000000	      0.00000000	     24.31323042	    -41.17501287	    -24.70861785	     41.03026565	      0.71611323	     -3.61904650	      0.00000000	      0.00000000	    -73.74988523	     -5.59890262	     -1.65438819	     40.85673706	      4.85293523	     22.46892483	     31.97601445	     40.33446733	      0.00000000	      0.00000000	     54.51091760	    -11.04530760	     54.74718476	     17.55487848	     85.49269624	      0.00000000	      0.00000000
